<?xml version="1.0" encoding="UTF-8"?>
<svg xmlns="http://www.w3.org/2000/svg" viewBox="0 0 1024 1024" role="img" aria-labelledby="title desc">
  <title id="title">Detached panels mark</title>
  <desc id="desc">Two solid white rounded panels lean away from a narrow black opening.</desc>

  <rect width="1024" height="1024" fill="#000"/>

  <path
    fill="#fff"
    d="M244 329
       C244 286 280 258 319 269
       C354 279 400 302 443 322
       C458 329 468 342 472 358
       L538 600
       C544 622 533 640 514 649
       L344 719
       C297 739 244 714 244 666
       Z"/>

  <path
    fill="#fff"
    d="M780 317
       C780 271 732 245 691 263
       L546 338
       C527 348 518 365 523 384
       L589 629
       C594 647 604 658 620 666
       L688 704
       C729 727 780 704 780 660
       Z"/>
</svg>
